  0
SECTION
  2
HEADER
  9
$ACADVER
  1
AC1009
  9
$INSBASE
 10
0.0
 20
0.0
 30
0.0
  9
$EXTMIN
 10
111.0
 20
222.0
 30
0.0
  9
$EXTMAX
 10
333.0
 20
444.0
 30
0.0
  9
$LIMMIN
 10
0.0
 20
0.0
  9
$LIMMAX
 10
12.0
 20
9.0
  9
$ORTHOMODE
 70
     0
  9
$REGENMODE
 70
     1
  9
$FILLMODE
 70
     1
  9
$QTEXTMODE
 70
     0
  9
$MIRRTEXT
 70
     0
  9
$DRAGMODE
 70
     2
  9
$LTSCALE
 40
1.0
  9
$OSMODE
 70
   235
  9
$ATTMODE
 70
     1
  9
$TEXTSIZE
 40
0.2
  9
$TRACEWID
 40
0.05
  9
$TEXTSTYLE
  7
STANDARD
  9
$CLAYER
  8
0
  9
$CELTYPE
  6
BYLAYER
  9
$CECOLOR
 62
   256
  9
$DIMSCALE
 40
1.0
  9
$DIMASZ
 40
0.18
  9
$DIMEXO
 40
0.0625
  9
$DIMDLI
 40
0.38
  9
$DIMRND
 40
0.0
  9
$DIMDLE
 40
0.0
  9
$DIMEXE
 40
0.18
  9
$DIMTP
 40
0.0
  9
$DIMTM
 40
0.0
  9
$DIMTXT
 40
0.18
  9
$DIMCEN
 40
0.09
  9
$DIMTSZ
 40
0.0
  9
$DIMTOL
 70
     0
  9
$DIMLIM
 70
     0
  9
$DIMTIH
 70
     1
  9
$DIMTOH
 70
     1
  9
$DIMSE1
 70
     0
  9
$DIMSE2
 70
     0
  9
$DIMTAD
 70
     0
  9
$DIMZIN
 70
     0
  9
$DIMBLK
  1

  9
$DIMASO
 70
     1
  9
$DIMSHO
 70
     1
  9
$DIMPOST
  1

  9
$DIMAPOST
  1

  9
$DIMALT
 70
     0
  9
$DIMALTD
 70
     2
  9
$DIMALTF
 40
25.399999999999999
  9
$DIMLFAC
 40
1.0
  9
$DIMTOFL
 70
     0
  9
$DIMTVP
 40
0.0
  9
$DIMTIX
 70
     0
  9
$DIMSOXD
 70
     0
  9
$DIMSAH
 70
     0
  9
$DIMBLK1
  1

  9
$DIMBLK2
  1

  9
$DIMSTYLE
  2
STANDARD
  9
$DIMCLRD
 70
     0
  9
$DIMCLRE
 70
     0
  9
$DIMCLRT
 70
     0
  9
$DIMTFAC
 40
1.0
  9
$DIMGAP
 40
0.09
  9
$LUNITS
 70
     2
  9
$LUPREC
 70
     0
  9
$SKETCHINC
 40
0.1
  9
$FILLETRAD
 40
0.0
  9
$AUNITS
 70
     0
  9
$AUPREC
 70
     0
  9
$MENU
  1
.
  9
$ELEVATION
 40
0.0
  9
$PELEVATION
 40
0.0
  9
$THICKNESS
 40
0.0
  9
$LIMCHECK
 70
     0
  9
$BLIPMODE
 70
     0
  9
$CHAMFERA
 40
0.5
  9
$CHAMFERB
 40
0.5
  9
$SKPOLY
 70
     1
  9
$TDCREATE
 40
2457232.5000297921
  9
$TDUPDATE
 40
2457232.5002570138
  9
$TDINDWG
 40
0.0002280671
  9
$TDUSRTIMER
 40
0.0002280324
  9
$USRTIMER
 70
     1
  9
$ANGBASE
 50
0.0
  9
$ANGDIR
 70
     0
  9
$PDMODE
 70
     0
  9
$PDSIZE
 40
0.0
  9
$PLINEWID
 40
0.0
  9
$COORDS
 70
     1
  9
$SPLFRAME
 70
     0
  9
$SPLINETYPE
 70
     6
  9
$SPLINESEGS
 70
     8
  9
$ATTDIA
 70
     0
  9
$ATTREQ
 70
     1
  9
$HANDLING
 70
     1
  9
$HANDSEED
  5
156
  9
$SURFTAB1
 70
     6
  9
$SURFTAB2
 70
     6
  9
$SURFTYPE
 70
     6
  9
$SURFU
 70
     6
  9
$SURFV
 70
     6
  9
$UCSNAME
  2

  9
$UCSORG
 10
0.0
 20
0.0
 30
0.0
  9
$UCSXDIR
 10
1.0
 20
0.0
 30
0.0
  9
$UCSYDIR
 10
0.0
 20
1.0
 30
0.0
  9
$PUCSNAME
  2

  9
$PUCSORG
 10
0.0
 20
0.0
 30
0.0
  9
$PUCSXDIR
 10
1.0
 20
0.0
 30
0.0
  9
$PUCSYDIR
 10
0.0
 20
1.0
 30
0.0
  9
$USERI1
 70
     0
  9
$USERI2
 70
     0
  9
$USERI3
 70
     0
  9
$USERI4
 70
     0
  9
$USERI5
 70
     0
  9
$USERR1
 40
0.0
  9
$USERR2
 40
0.0
  9
$USERR3
 40
0.0
  9
$USERR4
 40
0.0
  9
$USERR5
 40
0.0
  9
$WORLDVIEW
 70
     1
  9
$SHADEDGE
 70
     3
  9
$SHADEDIF
 70
    70
  9
$TILEMODE
 70
     1
  9
$MAXACTVP
 70
    48
  9
$PLIMCHECK
 70
     0
  9
$PEXTMIN
 10
1.0000000000000000E+020
 20
1.0000000000000000E+020
 30
1.0000000000000000E+020
  9
$PEXTMAX
 10
-1.0000000000000000E+020
 20
-1.0000000000000000E+020
 30
-1.0000000000000000E+020
  9
$PLIMMIN
 10
0.0
 20
0.0
  9
$PLIMMAX
 10
12.0
 20
9.0
  9
$UNITMODE
 70
     0
  9
$VISRETAIN
 70
     1
  9
$PLINEGEN
 70
     0
  9
$PSLTSCALE
 70
     1
  0
ENDSEC
  0
SECTION
  2
TABLES
  0
TABLE
  2
VPORT
 70
     1
  0
VPORT
  2
*ACTIVE
 70
     0
 10
0.0
 20
0.0
 11
1.0
 21
1.0
 12
222.0
 22
333.0
 13
0.0
 23
0.0
 14
300.0
 24
300.0
 15
0.5
 25
0.5
 16
0.0
 26
0.0
 36
1.0
 17
0.0
 27
0.0
 37
0.0
 40
223.49327354260089
 41
1.6475869809203141
 42
50.0
 43
0.0
 44
0.0
 50
0.0
 51
0.0
 71
     0
 72
   100
 73
     1
 74
     1
 75
     0
 76
     0
 77
     0
 78
     0
  0
ENDTAB
  0
TABLE
  2
LTYPE
 70
     1
  0
LTYPE
  2
CONTINUOUS
 70
     0
  3
Solid line
 72
    65
 73
     0
 40
0.0
  0
ENDTAB
  0
TABLE
  2
LAYER
 70
     1
  0
LAYER
  2
0
 70
     0
 62
     7
  6
CONTINUOUS
  0
ENDTAB
  0
TABLE
  2
STYLE
 70
     1
  0
STYLE
  2
STANDARD
 70
     0
 40
0.0
 41
1.0
 50
0.0
 71
     0
 42
0.2
  3
txt
  4

  0
ENDTAB
  0
TABLE
  2
VIEW
 70
     1
  0
ENDTAB
  0
TABLE
  2
UCS
 70
     0
  0
ENDTAB
  0
TABLE
  2
APPID
 70
     3
  0
APPID
  2
ACAD
 70
     0
  0
APPID
  2
ACAD_NAV_VCDISPLAY
 70
     0
  0
APPID
  2
ACAD_MLEADERVER
 70
     0
  0
ENDTAB
  0
TABLE
  2
DIMSTYLE
 70
     1
  0
DIMSTYLE
  2
STANDARD
 70
     0
  3

  4

  5

  6

  7

 40
1.0
 41
0.18
 42
0.0625
 43
0.38
 44
0.18
 45
0.0
 46
0.0
 47
0.0
 48
0.0
140
0.18
141
0.09
142
0.0
143
25.399999999999999
144
1.0
145
0.0
146
1.0
147
0.09
 71
     0
 72
     0
 73
     1
 74
     1
 75
     0
 76
     0
 77
     0
 78
     0
170
     0
171
     2
172
     0
173
     0
174
     0
175
     0
176
     0
177
     0
178
     0
  0
ENDTAB
  0
ENDSEC
  0
SECTION
  2
BLOCKS
  0
BLOCK
  8
0
  2
$MODEL_SPACE
 70
     0
 10
0.0
 20
0.0
 30
0.0
  3
$MODEL_SPACE
  1

  0
ENDBLK
  5
1B
  8
0
  0
BLOCK
 67
     1
  8
0
  2
$PAPER_SPACE
 70
     0
 10
0.0
 20
0.0
 30
0.0
  3
$PAPER_SPACE
  1

  0
ENDBLK
  5
18
 67
     1
  8
0
  0
ENDSEC
  0
SECTION
  2
ENTITIES
  0
LINE
  5
2711
  8
0
 10
42582.91
 20
7.031566e-12
 30
50731.89
 11
42696.21
 21
3605.249
 31
50731.89
  0
LINE
  5
2712
  8
0
 10
95946.42
 20
4.964198e-13
 30
67921.04
 11
91899.0
 21
9.920865e-13
 31
67684.29
  0
LINE
  5
2713
  8
0
 10
100000.0
 20
60754.65
 30
48430.06
 11
100000.0
 21
57417.09
 31
50731.89
  0
LINE
  5
2714
  8
0
 10
91899.0
 20
9.920865e-13
 30
67684.29
 11
87863.86
 21
1.486248e-12
 31
67290.09
  0
LINE
  5
2715
  8
0
 10
87863.86
 20
1.486248e-12
 30
67290.09
 11
83847.14
 21
1.978155e-12
 31
66739.06
  0
LINE
  5
2716
  8
0
 10
100000.0
 20
0.0
 30
68000.0
 11
95946.42
 21
4.964198e-13
 31
67921.04
  0
LINE
  5
2717
  8
0
 10
100000.0
 20
64000.03
 30
46000.0
 11
95981.4
 21
63873.74
 31
46000.0
  0
LINE
  5
2718
  8
0
 10
100000.0
 20
-64000.03
 30
46000.0
 11
35999.97
 21
7.837743e-12
 31
46000.0
  0
LINE
  5
2719
  8
0
 10
83847.14
 20
1.978155e-12
 30
66739.06
 11
79854.92
 21
2.467061e-12
 31
66032.02
  0
LINE
  5
271a
  8
0
 10
79854.92
 20
2.467061e-12
 30
66032.02
 11
75893.26
 21
2.952224e-12
 31
65170.06
  0
LINE
  5
271b
  8
0
 10
75893.26
 20
2.952224e-12
 30
65170.06
 11
71968.18
 21
3.432908e-12
 31
64154.47
  0
LINE
  5
271c
  8
0
 10
71968.18
 20
3.432908e-12
 30
64154.47
 11
68085.62
 21
3.908384e-12
 31
62986.79
  0
LINE
  5
271d
  8
0
 10
68085.62
 20
3.908384e-12
 30
62986.79
 11
64251.48
 21
4.377931e-12
 31
61668.81
  0
LINE
  5
271e
  8
0
 10
64251.48
 20
4.377931e-12
 30
61668.81
 11
60471.58
 21
4.840835e-12
 31
60202.51
  0
LINE
  5
271f
  8
0
 10
60471.58
 20
4.840835e-12
 30
60202.51
 11
56751.64
 21
5.296396e-12
 31
58590.13
  0
LINE
  5
2720
  8
0
 10
56751.64
 20
5.296396e-12
 30
58590.13
 11
53097.32
 21
5.743922e-12
 31
56834.1
  0
LINE
  5
2721
  8
0
 10
53097.32
 20
5.743922e-12
 30
56834.1
 11
49514.15
 21
6.182733e-12
 31
54937.1
  0
LINE
  5
2722
  8
0
 10
49514.15
 20
6.182733e-12
 30
54937.1
 11
46007.57
 21
6.612165e-12
 31
52902.0
  0
LINE
  5
2723
  8
0
 10
46007.57
 20
6.612165e-12
 30
52902.0
 11
42582.91
 21
7.031566e-12
 31
50731.89
  0
LINE
  5
2724
  8
0
 10
42582.91
 20
7.031566e-12
 30
50731.89
 11
39245.35
 21
7.440298e-12
 31
48430.06
  0
LINE
  5
2725
  8
0
 10
39245.35
 20
7.440298e-12
 30
48430.06
 11
35999.97
 21
7.837743e-12
 31
46000.0
  0
LINE
  5
2726
  8
0
 10
100000.0
 20
64000.03
 30
46000.0
 11
100000.0
 21
60754.65
 31
48430.06
  0
LINE
  5
2727
  8
0
 10
39245.35
 20
7.440298e-12
 30
48430.06
 11
39365.24
 21
3814.816
 31
48430.06
  0
LINE
  5
2728
  8
0
 10
100000.0
 20
-64000.03
 30
46000.0
 11
100000.0
 21
-60754.65
 31
48430.06
  0
LINE
  5
2729
  8
0
 10
39245.35
 20
7.440298e-12
 30
48430.06
 11
100000.0
 21
-60754.65
 31
48430.06
  0
LINE
  5
272a
  8
0
 10
46007.57
 20
6.612165e-12
 30
52902.0
 11
46114.12
 21
3390.212
 31
52902.0
  0
LINE
  5
272b
  8
0
 10
100000.0
 20
57417.09
 30
50731.89
 11
100000.0
 21
53992.43
 31
52902.0
  0
LINE
  5
272c
  8
0
 10
42582.91
 20
7.031566e-12
 30
50731.89
 11
100000.0
 21
-57417.09
 31
50731.89
  0
LINE
  5
272d
  8
0
 10
100000.0
 20
-60754.65
 30
48430.06
 11
100000.0
 21
-57417.09
 31
50731.89
  0
LINE
  5
272e
  8
0
 10
49514.15
 20
6.182733e-12
 30
54937.1
 11
49613.77
 21
3170.033
 31
54937.1
  0
LINE
  5
272f
  8
0
 10
100000.0
 20
53992.43
 30
52902.0
 11
100000.0
 21
50485.85
 31
54937.1
  0
LINE
  5
2730
  8
0
 10
46007.57
 20
6.612165e-12
 30
52902.0
 11
100000.0
 21
-53992.43
 31
52902.0
  0
LINE
  5
2731
  8
0
 10
100000.0
 20
-57417.09
 30
50731.89
 11
100000.0
 21
-53992.43
 31
52902.0
  0
LINE
  5
2732
  8
0
 10
53097.32
 20
5.743922e-12
 30
56834.1
 11
53189.87
 21
2945.044
 31
56834.1
  0
LINE
  5
2733
  8
0
 10
100000.0
 20
50485.85
 30
54937.1
 11
100000.0
 21
46902.68
 31
56834.1
  0
LINE
  5
2734
  8
0
 10
49514.15
 20
6.182733e-12
 30
54937.1
 11
100000.0
 21
-50485.85
 31
54937.1
  0
LINE
  5
2735
  8
0
 10
100000.0
 20
-53992.43
 30
52902.0
 11
100000.0
 21
-50485.85
 31
54937.1
  0
LINE
  5
2736
  8
0
 10
56751.64
 20
5.296396e-12
 30
58590.13
 11
56836.98
 21
2715.587
 31
58590.13
  0
LINE
  5
2737
  8
0
 10
100000.0
 20
46902.68
 30
56834.1
 11
100000.0
 21
43248.36
 31
58590.13
  0
LINE
  5
2738
  8
0
 10
53097.32
 20
5.743922e-12
 30
56834.1
 11
100000.0
 21
-46902.68
 31
56834.1
  0
LINE
  5
2739
  8
0
 10
100000.0
 20
-50485.85
 30
54937.1
 11
100000.0
 21
-46902.68
 31
56834.1
  0
LINE
  5
273a
  8
0
 10
60471.58
 20
4.840835e-12
 30
60202.51
 11
60549.58
 21
2482.01
 31
60202.51
  0
LINE
  5
273b
  8
0
 10
100000.0
 20
43248.36
 30
58590.13
 11
100000.0
 21
39528.42
 31
60202.51
  0
LINE
  5
273c
  8
0
 10
56751.64
 20
5.296396e-12
 30
58590.13
 11
100000.0
 21
-43248.36
 31
58590.13
  0
LINE
  5
273d
  8
0
 10
100000.0
 20
-46902.68
 30
56834.1
 11
100000.0
 21
-43248.36
 31
58590.13
  0
LINE
  5
273e
  8
0
 10
64251.48
 20
4.377931e-12
 30
61668.81
 11
64322.03
 21
2244.668
 31
61668.81
  0
LINE
  5
273f
  8
0
 10
100000.0
 20
39528.42
 30
60202.51
 11
100000.0
 21
35748.52
 31
61668.81
  0
LINE
  5
2740
  8
0
 10
60471.58
 20
4.840835e-12
 30
60202.51
 11
100000.0
 21
-39528.42
 31
60202.51
  0
LINE
  5
2741
  8
0
 10
100000.0
 20
-43248.36
 30
58590.13
 11
100000.0
 21
-39528.42
 31
60202.51
  0
LINE
  5
2742
  8
0
 10
68085.62
 20
3.908384e-12
 30
62986.79
 11
68148.6
 21
2003.92
 31
62986.79
  0
LINE
  5
2743
  8
0
 10
100000.0
 20
35748.52
 30
61668.81
 11
100000.0
 21
31914.38
 31
62986.79
  0
LINE
  5
2744
  8
0
 10
64251.48
 20
4.377931e-12
 30
61668.81
 11
100000.0
 21
-35748.52
 31
61668.81
  0
LINE
  5
2745
  8
0
 10
100000.0
 20
-39528.42
 30
60202.51
 11
100000.0
 21
-35748.52
 31
61668.81
  0
LINE
  5
2746
  8
0
 10
71968.18
 20
3.432908e-12
 30
64154.47
 11
72023.49
 21
1760.133
 31
64154.47
  0
LINE
  5
2747
  8
0
 10
100000.0
 20
31914.38
 30
62986.79
 11
100000.0
 21
28031.82
 31
64154.47
  0
LINE
  5
2748
  8
0
 10
68085.62
 20
3.908384e-12
 30
62986.79
 11
100000.0
 21
-31914.38
 31
62986.79
  0
LINE
  5
2749
  8
0
 10
100000.0
 20
-35748.52
 30
61668.81
 11
100000.0
 21
-31914.38
 31
62986.79
  0
LINE
  5
274a
  8
0
 10
75893.26
 20
2.952224e-12
 30
65170.06
 11
75940.83
 21
1513.674
 31
65170.06
  0
LINE
  5
274b
  8
0
 10
100000.0
 20
28031.82
 30
64154.47
 11
100000.0
 21
24106.74
 31
65170.06
  0
LINE
  5
274c
  8
0
 10
71968.18
 20
3.432908e-12
 30
64154.47
 11
100000.0
 21
-28031.82
 31
64154.47
  0
LINE
  5
274d
  8
0
 10
100000.0
 20
-31914.38
 30
62986.79
 11
100000.0
 21
-28031.82
 31
64154.47
  0
LINE
  5
274e
  8
0
 10
79854.92
 20
2.467061e-12
 30
66032.02
 11
79894.67
 21
1264.92
 31
66032.02
  0
LINE
  5
274f
  8
0
 10
100000.0
 20
24106.74
 30
65170.06
 11
100000.0
 21
20145.08
 31
66032.02
  0
LINE
  5
2750
  8
0
 10
75893.26
 20
2.952224e-12
 30
65170.06
 11
100000.0
 21
-24106.74
 31
65170.06
  0
LINE
  5
2751
  8
0
 10
100000.0
 20
-28031.82
 30
64154.47
 11
100000.0
 21
-24106.74
 31
65170.06
  0
LINE
  5
2752
  8
0
 10
83847.14
 20
1.978155e-12
 30
66739.06
 11
83879.01
 21
1014.247
 31
66739.06
  0
LINE
  5
2753
  8
0
 10
100000.0
 20
20145.08
 30
66032.02
 11
100000.0
 21
16152.86
 31
66739.06
  0
LINE
  5
2754
  8
0
 10
79854.92
 20
2.467061e-12
 30
66032.02
 11
100000.0
 21
-20145.08
 31
66032.02
  0
LINE
  5
2755
  8
0
 10
100000.0
 20
-24106.74
 30
65170.06
 11
100000.0
 21
-20145.08
 31
66032.02
  0
LINE
  5
2756
  8
0
 10
87863.86
 20
1.486248e-12
 30
67290.09
 11
87887.81
 21
762.0343
 31
67290.09
  0
LINE
  5
2757
  8
0
 10
100000.0
 20
16152.86
 30
66739.06
 11
100000.0
 21
12136.14
 31
67290.09
  0
LINE
  5
2758
  8
0
 10
83847.14
 20
1.978155e-12
 30
66739.06
 11
100000.0
 21
-16152.86
 31
66739.06
  0
LINE
  5
2759
  8
0
 10
100000.0
 20
-20145.08
 30
66032.02
 11
100000.0
 21
-16152.86
 31
66739.06
  0
LINE
  5
275a
  8
0
 10
95981.4
 20
63873.74
 30
46000.0
 11
91978.67
 21
63495.37
 31
46000.0
  0
LINE
  5
275b
  8
0
 10
91899.0
 20
9.920865e-13
 30
67684.29
 11
91914.98
 21
508.6661
 31
67684.29
  0
LINE
  5
275c
  8
0
 10
87863.86
 20
1.486248e-12
 30
67290.09
 11
100000.0
 21
-12136.14
 31
67290.09
  0
LINE
  5
275d
  8
0
 10
100000.0
 20
-16152.86
 30
66739.06
 11
100000.0
 21
-12136.14
 31
67290.09
  0
LINE
  5
275e
  8
0
 10
100000.0
 20
0.0
 30
68000.0
 11
100000.0
 21
4053.575
 31
67921.04
  0
LINE
  5
275f
  8
0
 10
95946.42
 20
4.964198e-13
 30
67921.04
 11
95954.42
 21
254.5261
 31
67921.04
  0
LINE
  5
2760
  8
0
 10
91978.67
 20
63495.37
 30
46000.0
 11
88007.59
 21
62866.41
 31
46000.0
  0
LINE
  5
2761
  8
0
 10
91899.0
 20
9.920865e-13
 30
67684.29
 11
100000.0
 21
-8101.001
 31
67684.29
  0
LINE
  5
2762
  8
0
 10
100000.0
 20
12136.14
 30
67290.09
 11
100000.0
 21
8101.001
 31
67684.29
  0
LINE
  5
2763
  8
0
 10
100000.0
 20
-12136.14
 30
67290.09
 11
100000.0
 21
-8101.001
 31
67684.29
  0
LINE
  5
2764
  8
0
 10
100000.0
 20
0.0
 30
68000.0
 11
100000.0
 21
-4053.575
 31
67921.04
  0
LINE
  5
2765
  8
0
 10
95946.42
 20
4.964198e-13
 30
67921.04
 11
100000.0
 21
-4053.575
 31
67921.04
  0
LINE
  5
2766
  8
0
 10
100000.0
 20
8101.001
 30
67684.29
 11
100000.0
 21
4053.575
 31
67921.04
  0
LINE
  5
2767
  8
0
 10
100000.0
 20
-8101.001
 30
67684.29
 11
100000.0
 21
-4053.575
 31
67921.04
  0
LINE
  5
2768
  8
0
 10
88007.59
 20
62866.41
 30
46000.0
 11
84083.84
 21
61989.35
 31
46000.0
  0
LINE
  5
2769
  8
0
 10
84083.84
 20
61989.35
 30
46000.0
 11
80222.9
 21
60867.65
 31
46000.0
  0
LINE
  5
276a
  8
0
 10
80222.9
 20
60867.65
 30
46000.0
 11
76440.02
 21
59505.72
 31
46000.0
  0
LINE
  5
276b
  8
0
 10
76440.02
 20
59505.72
 30
46000.0
 11
72750.11
 21
57908.96
 31
46000.0
  0
LINE
  5
276c
  8
0
 10
72750.11
 20
57908.96
 30
46000.0
 11
69167.75
 21
56083.65
 31
46000.0
  0
LINE
  5
276d
  8
0
 10
69167.75
 20
56083.65
 30
46000.0
 11
65707.07
 21
54037.01
 31
46000.0
  0
LINE
  5
276e
  8
0
 10
65707.07
 20
54037.01
 30
46000.0
 11
62381.73
 21
51777.11
 31
46000.0
  0
LINE
  5
276f
  8
0
 10
62381.73
 20
51777.11
 30
46000.0
 11
59204.84
 21
49312.87
 31
46000.0
  0
LINE
  5
2770
  8
0
 10
59204.84
 20
49312.87
 30
46000.0
 11
56188.96
 21
46654.01
 31
46000.0
  0
LINE
  5
2771
  8
0
 10
56188.96
 20
46654.01
 30
46000.0
 11
53345.99
 21
43811.04
 31
46000.0
  0
LINE
  5
2772
  8
0
 10
53345.99
 20
43811.04
 30
46000.0
 11
50687.13
 21
40795.16
 31
46000.0
  0
LINE
  5
2773
  8
0
 10
50687.13
 20
40795.16
 30
46000.0
 11
48222.89
 21
37618.27
 31
46000.0
  0
LINE
  5
2774
  8
0
 10
48222.89
 20
37618.27
 30
46000.0
 11
45962.99
 21
34292.93
 31
46000.0
  0
LINE
  5
2775
  8
0
 10
45962.99
 20
34292.93
 30
46000.0
 11
43916.35
 21
30832.25
 31
46000.0
  0
LINE
  5
2776
  8
0
 10
43916.35
 20
30832.25
 30
46000.0
 11
42091.04
 21
27249.89
 31
46000.0
  0
LINE
  5
2777
  8
0
 10
42091.04
 20
27249.89
 30
46000.0
 11
40494.28
 21
23559.98
 31
46000.0
  0
LINE
  5
2778
  8
0
 10
40494.28
 20
23559.98
 30
46000.0
 11
39132.35
 21
19777.1
 31
46000.0
  0
LINE
  5
2779
  8
0
 10
39132.35
 20
19777.1
 30
46000.0
 11
38010.65
 21
15916.16
 31
46000.0
  0
LINE
  5
277a
  8
0
 10
38010.65
 20
15916.16
 30
46000.0
 11
37133.59
 21
11992.41
 31
46000.0
  0
LINE
  5
277b
  8
0
 10
37133.59
 20
11992.41
 30
46000.0
 11
36504.63
 21
8021.331
 31
46000.0
  0
LINE
  5
277c
  8
0
 10
36504.63
 20
8021.331
 30
46000.0
 11
36126.26
 21
4018.595
 31
46000.0
  0
LINE
  5
277d
  8
0
 10
36126.26
 20
4018.595
 30
46000.0
 11
35999.97
 21
7.837743e-12
 31
46000.0
  0
LINE
  5
277e
  8
0
 10
39365.24
 20
3814.816
 30
48430.06
 11
39724.42
 21
7614.576
 31
48430.06
  0
LINE
  5
277f
  8
0
 10
39724.42
 20
7614.576
 30
48430.06
 11
40321.49
 21
11384.29
 31
48430.06
  0
LINE
  5
2780
  8
0
 10
40321.49
 20
11384.29
 30
48430.06
 11
41154.07
 21
15109.07
 31
48430.06
  0
LINE
  5
2781
  8
0
 10
41154.07
 20
15109.07
 30
48430.06
 11
42218.9
 21
18774.22
 31
48430.06
  0
LINE
  5
2782
  8
0
 10
42218.9
 20
18774.22
 30
48430.06
 11
43511.76
 21
22365.28
 31
48430.06
  0
LINE
  5
2783
  8
0
 10
43511.76
 20
22365.28
 30
48430.06
 11
45027.55
 21
25868.07
 31
48430.06
  0
LINE
  5
2784
  8
0
 10
45027.55
 20
25868.07
 30
48430.06
 11
46760.3
 21
29268.77
 31
48430.06
  0
LINE
  5
2785
  8
0
 10
46760.3
 20
29268.77
 30
48430.06
 11
48703.16
 21
32553.97
 31
48430.06
  0
LINE
  5
2786
  8
0
 10
48703.16
 20
32553.97
 30
48430.06
 11
50848.46
 21
35710.68
 31
48430.06
  0
LINE
  5
2787
  8
0
 10
50848.46
 20
35710.68
 30
48430.06
 11
53187.74
 21
38726.47
 31
48430.06
  0
LINE
  5
2788
  8
0
 10
53187.74
 20
38726.47
 30
48430.06
 11
55711.77
 21
41589.42
 31
48430.06
  0
LINE
  5
2789
  8
0
 10
55711.77
 20
41589.42
 30
48430.06
 11
58410.58
 21
44288.23
 31
48430.06
  0
LINE
  5
278a
  8
0
 10
58410.58
 20
44288.23
 30
48430.06
 11
61273.53
 21
46812.26
 31
48430.06
  0
LINE
  5
278b
  8
0
 10
61273.53
 20
46812.26
 30
48430.06
 11
64289.32
 21
49151.54
 31
48430.06
  0
LINE
  5
278c
  8
0
 10
64289.32
 20
49151.54
 30
48430.06
 11
67446.03
 21
51296.84
 31
48430.06
  0
LINE
  5
278d
  8
0
 10
67446.03
 20
51296.84
 30
48430.06
 11
70731.23
 21
53239.7
 31
48430.06
  0
LINE
  5
278e
  8
0
 10
70731.23
 20
53239.7
 30
48430.06
 11
74131.93
 21
54972.45
 31
48430.06
  0
LINE
  5
278f
  8
0
 10
74131.93
 20
54972.45
 30
48430.06
 11
77634.72
 21
56488.24
 31
48430.06
  0
LINE
  5
2790
  8
0
 10
77634.72
 20
56488.24
 30
48430.06
 11
81225.78
 21
57781.1
 31
48430.06
  0
LINE
  5
2791
  8
0
 10
81225.78
 20
57781.1
 30
48430.06
 11
84890.93
 21
58845.93
 31
48430.06
  0
LINE
  5
2792
  8
0
 10
84890.93
 20
58845.93
 30
48430.06
 11
88615.71
 21
59678.51
 31
48430.06
  0
LINE
  5
2793
  8
0
 10
88615.71
 20
59678.51
 30
48430.06
 11
92385.42
 21
60275.58
 31
48430.06
  0
LINE
  5
2794
  8
0
 10
92385.42
 20
60275.58
 30
48430.06
 11
96185.18
 21
60634.76
 31
48430.06
  0
LINE
  5
2795
  8
0
 10
96185.18
 20
60634.76
 30
48430.06
 11
100000.0
 21
60754.65
 31
48430.06
  0
LINE
  5
2796
  8
0
 10
42696.21
 20
3605.249
 30
50731.89
 11
43035.66
 21
7196.27
 31
50731.89
  0
LINE
  5
2797
  8
0
 10
43035.66
 20
7196.27
 30
50731.89
 11
43599.92
 21
10758.89
 31
50731.89
  0
LINE
  5
2798
  8
0
 10
43599.92
 20
10758.89
 30
50731.89
 11
44386.77
 21
14279.05
 31
50731.89
  0
LINE
  5
2799
  8
0
 10
44386.77
 20
14279.05
 30
50731.89
 11
45393.1
 21
17742.86
 31
50731.89
  0
LINE
  5
279a
  8
0
 10
45393.1
 20
17742.86
 30
50731.89
 11
46614.94
 21
21136.64
 31
50731.89
  0
LINE
  5
279b
  8
0
 10
46614.94
 20
21136.64
 30
50731.89
 11
48047.46
 21
24447.01
 31
50731.89
  0
LINE
  5
279c
  8
0
 10
48047.46
 20
24447.01
 30
50731.89
 11
49685.02
 21
27660.89
 31
50731.89
  0
LINE
  5
279d
  8
0
 10
49685.02
 20
27660.89
 30
50731.89
 11
51521.15
 21
30765.62
 31
50731.89
  0
LINE
  5
279e
  8
0
 10
51521.15
 20
30765.62
 30
50731.89
 11
53548.6
 21
33748.92
 31
50731.89
  0
LINE
  5
279f
  8
0
 10
53548.6
 20
33748.92
 30
50731.89
 11
55759.37
 21
36599.03
 31
50731.89
  0
LINE
  5
27a0
  8
0
 10
55759.37
 20
36599.03
 30
50731.89
 11
58144.74
 21
39304.7
 31
50731.89
  0
LINE
  5
27a1
  8
0
 10
58144.74
 20
39304.7
 30
50731.89
 11
60695.3
 21
41855.26
 31
50731.89
  0
LINE
  5
27a2
  8
0
 10
60695.3
 20
41855.26
 30
50731.89
 11
63400.97
 21
44240.63
 31
50731.89
  0
LINE
  5
27a3
  8
0
 10
63400.97
 20
44240.63
 30
50731.89
 11
66251.08
 21
46451.4
 31
50731.89
  0
LINE
  5
27a4
  8
0
 10
66251.08
 20
46451.4
 30
50731.89
 11
69234.38
 21
48478.85
 31
50731.89
  0
LINE
  5
27a5
  8
0
 10
69234.38
 20
48478.85
 30
50731.89
 11
72339.11
 21
50314.98
 31
50731.89
  0
LINE
  5
27a6
  8
0
 10
72339.11
 20
50314.98
 30
50731.89
 11
75552.99
 21
51952.54
 31
50731.89
  0
LINE
  5
27a7
  8
0
 10
75552.99
 20
51952.54
 30
50731.89
 11
78863.36
 21
53385.06
 31
50731.89
  0
LINE
  5
27a8
  8
0
 10
78863.36
 20
53385.06
 30
50731.89
 11
82257.14
 21
54606.9
 31
50731.89
  0
LINE
  5
27a9
  8
0
 10
82257.14
 20
54606.9
 30
50731.89
 11
85720.95
 21
55613.23
 31
50731.89
  0
LINE
  5
27aa
  8
0
 10
85720.95
 20
55613.23
 30
50731.89
 11
89241.11
 21
56400.08
 31
50731.89
  0
LINE
  5
27ab
  8
0
 10
89241.11
 20
56400.08
 30
50731.89
 11
92803.73
 21
56964.34
 31
50731.89
  0
LINE
  5
27ac
  8
0
 10
92803.73
 20
56964.34
 30
50731.89
 11
96394.75
 21
57303.79
 31
50731.89
  0
LINE
  5
27ad
  8
0
 10
96394.75
 20
57303.79
 30
50731.89
 11
100000.0
 21
57417.09
 31
50731.89
  0
LINE
  5
27ae
  8
0
 10
46114.12
 20
3390.212
 30
52902.0
 11
46433.32
 21
6767.045
 31
52902.0
  0
LINE
  5
27af
  8
0
 10
46433.32
 20
6767.045
 30
52902.0
 11
46963.93
 21
10117.17
 31
52902.0
  0
LINE
  5
27b0
  8
0
 10
46963.93
 20
10117.17
 30
52902.0
 11
47703.85
 21
13427.37
 31
52902.0
  0
LINE
  5
27b1
  8
0
 10
47703.85
 20
13427.37
 30
52902.0
 11
48650.15
 21
16684.58
 31
52902.0
  0
LINE
  5
27b2
  8
0
 10
48650.15
 20
16684.58
 30
52902.0
 11
49799.11
 21
19875.94
 31
52902.0
  0
LINE
  5
27b3
  8
0
 10
49799.11
 20
19875.94
 30
52902.0
 11
51146.19
 21
22988.86
 31
52902.0
  0
LINE
  5
27b4
  8
0
 10
51146.19
 20
22988.86
 30
52902.0
 11
52686.08
 21
26011.05
 31
52902.0
  0
LINE
  5
27b5
  8
0
 10
52686.08
 20
26011.05
 30
52902.0
 11
54412.69
 21
28930.59
 31
52902.0
  0
LINE
  5
27b6
  8
0
 10
54412.69
 20
28930.59
 30
52902.0
 11
56319.21
 21
31735.95
 31
52902.0
  0
LINE
  5
27b7
  8
0
 10
56319.21
 20
31735.95
 30
52902.0
 11
58398.12
 21
34416.07
 31
52902.0
  0
LINE
  5
27b8
  8
0
 10
58398.12
 20
34416.07
 30
52902.0
 11
60641.22
 21
36960.36
 31
52902.0
  0
LINE
  5
27b9
  8
0
 10
60641.22
 20
36960.36
 30
52902.0
 11
63039.64
 21
39358.78
 31
52902.0
  0
LINE
  5
27ba
  8
0
 10
63039.64
 20
39358.78
 30
52902.0
 11
65583.93
 21
41601.88
 31
52902.0
  0
LINE
  5
27bb
  8
0
 10
65583.93
 20
41601.88
 30
52902.0
 11
68264.05
 21
43680.79
 31
52902.0
  0
LINE
  5
27bc
  8
0
 10
68264.05
 20
43680.79
 30
52902.0
 11
71069.41
 21
45587.31
 31
52902.0
  0
LINE
  5
27bd
  8
0
 10
71069.41
 20
45587.31
 30
52902.0
 11
73988.95
 21
47313.92
 31
52902.0
  0
LINE
  5
27be
  8
0
 10
73988.95
 20
47313.92
 30
52902.0
 11
77011.14
 21
48853.81
 31
52902.0
  0
LINE
  5
27bf
  8
0
 10
77011.14
 20
48853.81
 30
52902.0
 11
80124.06
 21
50200.89
 31
52902.0
  0
LINE
  5
27c0
  8
0
 10
80124.06
 20
50200.89
 30
52902.0
 11
83315.42
 21
51349.85
 31
52902.0
  0
LINE
  5
27c1
  8
0
 10
83315.42
 20
51349.85
 30
52902.0
 11
86572.63
 21
52296.15
 31
52902.0
  0
LINE
  5
27c2
  8
0
 10
86572.63
 20
52296.15
 30
52902.0
 11
89882.83
 21
53036.07
 31
52902.0
  0
LINE
  5
27c3
  8
0
 10
89882.83
 20
53036.07
 30
52902.0
 11
93232.95
 21
53566.68
 31
52902.0
  0
LINE
  5
27c4
  8
0
 10
93232.95
 20
53566.68
 30
52902.0
 11
96609.79
 21
53885.88
 31
52902.0
  0
LINE
  5
27c5
  8
0
 10
96609.79
 20
53885.88
 30
52902.0
 11
100000.0
 21
53992.43
 31
52902.0
  0
LINE
  5
27c6
  8
0
 10
49613.77
 20
3170.033
 30
54937.1
 11
49912.25
 21
6327.555
 31
54937.1
  0
LINE
  5
27c7
  8
0
 10
49912.25
 20
6327.555
 30
54937.1
 11
50408.39
 21
9460.105
 31
54937.1
  0
LINE
  5
27c8
  8
0
 10
50408.39
 20
9460.105
 30
54937.1
 11
51100.26
 21
12555.32
 31
54937.1
  0
LINE
  5
27c9
  8
0
 10
51100.26
 20
12555.32
 30
54937.1
 11
51985.1
 21
15600.99
 31
54937.1
  0
LINE
  5
27ca
  8
0
 10
51985.1
 20
15600.99
 30
54937.1
 11
53059.44
 21
18585.08
 31
54937.1
  0
LINE
  5
27cb
  8
0
 10
53059.44
 20
18585.08
 30
54937.1
 11
54319.04
 21
21495.83
 31
54937.1
  0
LINE
  5
27cc
  8
0
 10
54319.04
 20
21495.83
 30
54937.1
 11
55758.91
 21
24321.74
 31
54937.1
  0
LINE
  5
27cd
  8
0
 10
55758.91
 20
24321.74
 30
54937.1
 11
57373.39
 21
27051.67
 31
54937.1
  0
LINE
  5
27ce
  8
0
 10
57373.39
 20
27051.67
 30
54937.1
 11
59156.09
 21
29674.84
 31
54937.1
  0
LINE
  5
27cf
  8
0
 10
59156.09
 20
29674.84
 30
54937.1
 11
61099.98
 21
32180.89
 31
54937.1
  0
LINE
  5
27d0
  8
0
 10
61099.98
 20
32180.89
 30
54937.1
 11
63197.4
 21
34559.94
 31
54937.1
  0
LINE
  5
27d1
  8
0
 10
63197.4
 20
34559.94
 30
54937.1
 11
65440.06
 21
36802.6
 31
54937.1
  0
LINE
  5
27d2
  8
0
 10
65440.06
 20
36802.6
 30
54937.1
 11
67819.11
 21
38900.02
 31
54937.1
  0
LINE
  5
27d3
  8
0
 10
67819.11
 20
38900.02
 30
54937.1
 11
70325.16
 21
40843.91
 31
54937.1
  0
LINE
  5
27d4
  8
0
 10
70325.16
 20
40843.91
 30
54937.1
 11
72948.33
 21
42626.61
 31
54937.1
  0
LINE
  5
27d5
  8
0
 10
72948.33
 20
42626.61
 30
54937.1
 11
75678.26
 21
44241.09
 31
54937.1
  0
LINE
  5
27d6
  8
0
 10
75678.26
 20
44241.09
 30
54937.1
 11
78504.17
 21
45680.96
 31
54937.1
  0
LINE
  5
27d7
  8
0
 10
78504.17
 20
45680.96
 30
54937.1
 11
81414.92
 21
46940.56
 31
54937.1
  0
LINE
  5
27d8
  8
0
 10
81414.92
 20
46940.56
 30
54937.1
 11
84399.01
 21
48014.9
 31
54937.1
  0
LINE
  5
27d9
  8
0
 10
84399.01
 20
48014.9
 30
54937.1
 11
87444.68
 21
48899.74
 31
54937.1
  0
LINE
  5
27da
  8
0
 10
87444.68
 20
48899.74
 30
54937.1
 11
90539.9
 21
49591.61
 31
54937.1
  0
LINE
  5
27db
  8
0
 10
90539.9
 20
49591.61
 30
54937.1
 11
93672.45
 21
50087.75
 31
54937.1
  0
LINE
  5
27dc
  8
0
 10
93672.45
 20
50087.75
 30
54937.1
 11
96829.97
 21
50386.23
 31
54937.1
  0
LINE
  5
27dd
  8
0
 10
96829.97
 20
50386.23
 30
54937.1
 11
100000.0
 21
50485.85
 31
54937.1
  0
LINE
  5
27de
  8
0
 10
53189.87
 20
2945.044
 30
56834.1
 11
53467.16
 21
5878.465
 31
56834.1
  0
LINE
  5
27df
  8
0
 10
53467.16
 20
5878.465
 30
56834.1
 11
53928.09
 21
8788.686
 31
56834.1
  0
LINE
  5
27e0
  8
0
 10
53928.09
 20
8788.686
 30
56834.1
 11
54570.85
 21
11664.22
 31
56834.1
  0
LINE
  5
27e1
  8
0
 10
54570.85
 20
11664.22
 30
56834.1
 11
55392.9
 21
14493.73
 31
56834.1
  0
LINE
  5
27e2
  8
0
 10
55392.9
 20
14493.73
 30
56834.1
 11
56390.99
 21
17266.03
 31
56834.1
  0
LINE
  5
27e3
  8
0
 10
56390.99
 20
17266.03
 30
56834.1
 11
57561.18
 21
19970.19
 31
56834.1
  0
LINE
  5
27e4
  8
0
 10
57561.18
 20
19970.19
 30
56834.1
 11
58898.87
 21
22595.54
 31
56834.1
  0
LINE
  5
27e5
  8
0
 10
58898.87
 20
22595.54
 30
56834.1
 11
60398.76
 21
25131.71
 31
56834.1
  0
LINE
  5
27e6
  8
0
 10
60398.76
 20
25131.71
 30
56834.1
 11
62054.93
 21
27568.7
 31
56834.1
  0
LINE
  5
27e7
  8
0
 10
62054.93
 20
27568.7
 30
56834.1
 11
63860.86
 21
29896.89
 31
56834.1
  0
LINE
  5
27e8
  8
0
 10
63860.86
 20
29896.89
 30
56834.1
 11
65809.42
 21
32107.09
 31
56834.1
  0
LINE
  5
27e9
  8
0
 10
65809.42
 20
32107.09
 30
56834.1
 11
67892.91
 21
34190.58
 31
56834.1
  0
LINE
  5
27ea
  8
0
 10
67892.91
 20
34190.58
 30
56834.1
 11
70103.11
 21
36139.14
 31
56834.1
  0
LINE
  5
27eb
  8
0
 10
70103.11
 20
36139.14
 30
56834.1
 11
72431.3
 21
37945.07
 31
56834.1
  0
LINE
  5
27ec
  8
0
 10
72431.3
 20
37945.07
 30
56834.1
 11
74868.29
 21
39601.24
 31
56834.1
  0
LINE
  5
27ed
  8
0
 10
74868.29
 20
39601.24
 30
56834.1
 11
77404.46
 21
41101.13
 31
56834.1
  0
LINE
  5
27ee
  8
0
 10
77404.46
 20
41101.13
 30
56834.1
 11
80029.81
 21
42438.82
 31
56834.1
  0
LINE
  5
27ef
  8
0
 10
80029.81
 20
42438.82
 30
56834.1
 11
82733.97
 21
43609.01
 31
56834.1
  0
LINE
  5
27f0
  8
0
 10
82733.97
 20
43609.01
 30
56834.1
 11
85506.27
 21
44607.1
 31
56834.1
  0
LINE
  5
27f1
  8
0
 10
85506.27
 20
44607.1
 30
56834.1
 11
88335.78
 21
45429.15
 31
56834.1
  0
LINE
  5
27f2
  8
0
 10
88335.78
 20
45429.15
 30
56834.1
 11
91211.31
 21
46071.91
 31
56834.1
  0
LINE
  5
27f3
  8
0
 10
91211.31
 20
46071.91
 30
56834.1
 11
94121.54
 21
46532.84
 31
56834.1
  0
LINE
  5
27f4
  8
0
 10
94121.54
 20
46532.84
 30
56834.1
 11
97054.96
 21
46810.13
 31
56834.1
  0
LINE
  5
27f5
  8
0
 10
97054.96
 20
46810.13
 30
56834.1
 11
100000.0
 21
46902.68
 31
56834.1
  0
LINE
  5
27f6
  8
0
 10
56836.98
 20
2715.587
 30
58590.13
 11
57092.67
 21
5420.456
 31
58590.13
  0
LINE
  5
27f7
  8
0
 10
57092.67
 20
5420.456
 30
58590.13
 11
57517.69
 21
8103.934
 31
58590.13
  0
LINE
  5
27f8
  8
0
 10
57517.69
 20
8103.934
 30
58590.13
 11
58110.37
 21
10755.43
 31
58590.13
  0
LINE
  5
27f9
  8
0
 10
58110.37
 20
10755.43
 30
58590.13
 11
58868.37
 21
13364.48
 31
58590.13
  0
LINE
  5
27fa
  8
0
 10
58868.37
 20
13364.48
 30
58590.13
 11
59788.69
 21
15920.78
 31
58590.13
  0
LINE
  5
27fb
  8
0
 10
59788.69
 20
15920.78
 30
58590.13
 11
60867.72
 21
18414.25
 31
58590.13
  0
LINE
  5
27fc
  8
0
 10
60867.72
 20
18414.25
 30
58590.13
 11
62101.18
 21
20835.06
 31
58590.13
  0
LINE
  5
27fd
  8
0
 10
62101.18
 20
20835.06
 30
58590.13
 11
63484.2
 21
23173.63
 31
58590.13
  0
LINE
  5
27fe
  8
0
 10
63484.2
 20
23173.63
 30
58590.13
 11
65011.34
 21
25420.75
 31
58590.13
  0
LINE
  5
27ff
  8
0
 10
65011.34
 20
25420.75
 30
58590.13
 11
66676.57
 21
27567.54
 31
58590.13
  0
LINE
  5
2800
  8
0
 10
66676.57
 20
27567.54
 30
58590.13
 11
68473.3
 21
29605.54
 31
58590.13
  0
LINE
  5
2801
  8
0
 10
68473.3
 20
29605.54
 30
58590.13
 11
70394.46
 21
31526.7
 31
58590.13
  0
LINE
  5
2802
  8
0
 10
70394.46
 20
31526.7
 30
58590.13
 11
72432.46
 21
33323.43
 31
58590.13
  0
LINE
  5
2803
  8
0
 10
72432.46
 20
33323.43
 30
58590.13
 11
74579.25
 21
34988.66
 31
58590.13
  0
LINE
  5
2804
  8
0
 10
74579.25
 20
34988.66
 30
58590.13
 11
76826.37
 21
36515.8
 31
58590.13
  0
LINE
  5
2805
  8
0
 10
76826.37
 20
36515.8
 30
58590.13
 11
79164.94
 21
37898.82
 31
58590.13
  0
LINE
  5
2806
  8
0
 10
79164.94
 20
37898.82
 30
58590.13
 11
81585.75
 21
39132.28
 31
58590.13
  0
LINE
  5
2807
  8
0
 10
81585.75
 20
39132.28
 30
58590.13
 11
84079.22
 21
40211.31
 31
58590.13
  0
LINE
  5
2808
  8
0
 10
84079.22
 20
40211.31
 30
58590.13
 11
86635.52
 21
41131.63
 31
58590.13
  0
LINE
  5
2809
  8
0
 10
86635.52
 20
41131.63
 30
58590.13
 11
89244.57
 21
41889.63
 31
58590.13
  0
LINE
  5
280a
  8
0
 10
89244.57
 20
41889.63
 30
58590.13
 11
91896.07
 21
42482.31
 31
58590.13
  0
LINE
  5
280b
  8
0
 10
91896.07
 20
42482.31
 30
58590.13
 11
94579.54
 21
42907.33
 31
58590.13
  0
LINE
  5
280c
  8
0
 10
94579.54
 20
42907.33
 30
58590.13
 11
97284.41
 21
43163.02
 31
58590.13
  0
LINE
  5
280d
  8
0
 10
97284.41
 20
43163.02
 30
58590.13
 11
100000.0
 21
43248.36
 31
58590.13
  0
LINE
  5
280e
  8
0
 10
60549.58
 20
2482.01
 30
60202.51
 11
60783.27
 21
4954.225
 31
60202.51
  0
LINE
  5
280f
  8
0
 10
60783.27
 20
4954.225
 30
60202.51
 11
61171.74
 21
7406.887
 31
60202.51
  0
LINE
  5
2810
  8
0
 10
61171.74
 20
7406.887
 30
60202.51
 11
61713.44
 21
9830.318
 31
60202.51
  0
LINE
  5
2811
  8
0
 10
61713.44
 20
9830.318
 30
60202.51
 11
62406.24
 21
12214.95
 31
60202.51
  0
LINE
  5
2812
  8
0
 10
62406.24
 20
12214.95
 30
60202.51
 11
63247.4
 21
14551.38
 31
60202.51
  0
LINE
  5
2813
  8
0
 10
63247.4
 20
14551.38
 30
60202.51
 11
64233.62
 21
16830.38
 31
60202.51
  0
LINE
  5
2814
  8
0
 10
64233.62
 20
16830.38
 30
60202.51
 11
65360.98
 21
19042.96
 31
60202.51
  0
LINE
  5
2815
  8
0
 10
65360.98
 20
19042.96
 30
60202.51
 11
66625.05
 21
21180.39
 31
60202.51
  0
LINE
  5
2816
  8
0
 10
66625.05
 20
21180.39
 30
60202.51
 11
68020.84
 21
23234.22
 31
60202.51
  0
LINE
  5
2817
  8
0
 10
68020.84
 20
23234.22
 30
60202.51
 11
69542.83
 21
25196.36
 31
60202.51
  0
LINE
  5
2818
  8
0
 10
69542.83
 20
25196.36
 30
60202.51
 11
71185.02
 21
27059.07
 31
60202.51
  0
LINE
  5
2819
  8
0
 10
71185.02
 20
27059.07
 30
60202.51
 11
72940.93
 21
28814.98
 31
60202.51
  0
LINE
  5
281a
  8
0
 10
72940.93
 20
28814.98
 30
60202.51
 11
74803.64
 21
30457.17
 31
60202.51
  0
LINE
  5
281b
  8
0
 10
74803.64
 20
30457.17
 30
60202.51
 11
76765.78
 21
31979.16
 31
60202.51
  0
LINE
  5
281c
  8
0
 10
76765.78
 20
31979.16
 30
60202.51
 11
78819.61
 21
33374.95
 31
60202.51
  0
LINE
  5
281d
  8
0
 10
78819.61
 20
33374.95
 30
60202.51
 11
80957.04
 21
34639.02
 31
60202.51
  0
LINE
  5
281e
  8
0
 10
80957.04
 20
34639.02
 30
60202.51
 11
83169.62
 21
35766.38
 31
60202.51
  0
LINE
  5
281f
  8
0
 10
83169.62
 20
35766.38
 30
60202.51
 11
85448.62
 21
36752.6
 31
60202.51
  0
LINE
  5
2820
  8
0
 10
85448.62
 20
36752.6
 30
60202.51
 11
87785.05
 21
37593.76
 31
60202.51
  0
LINE
  5
2821
  8
0
 10
87785.05
 20
37593.76
 30
60202.51
 11
90169.68
 21
38286.56
 31
60202.51
  0
LINE
  5
2822
  8
0
 10
90169.68
 20
38286.56
 30
60202.51
 11
92593.11
 21
38828.26
 31
60202.51
  0
LINE
  5
2823
  8
0
 10
92593.11
 20
38828.26
 30
60202.51
 11
95045.78
 21
39216.73
 31
60202.51
  0
LINE
  5
2824
  8
0
 10
95045.78
 20
39216.73
 30
60202.51
 11
97517.99
 21
39450.42
 31
60202.51
  0
LINE
  5
2825
  8
0
 10
97517.99
 20
39450.42
 30
60202.51
 11
100000.0
 21
39528.42
 31
60202.51
  0
LINE
  5
2826
  8
0
 10
64322.03
 20
2244.668
 30
61668.81
 11
64533.37
 21
4480.477
 31
61668.81
  0
LINE
  5
2827
  8
0
 10
64533.37
 20
4480.477
 30
61668.81
 11
64884.69
 21
6698.604
 31
61668.81
  0
LINE
  5
2828
  8
0
 10
64884.69
 20
6698.604
 30
61668.81
 11
65374.59
 21
8890.294
 31
61668.81
  0
LINE
  5
2829
  8
0
 10
65374.59
 20
8890.294
 30
61668.81
 11
66001.14
 21
11046.9
 31
61668.81
  0
LINE
  5
282a
  8
0
 10
66001.14
 20
11046.9
 30
61668.81
 11
66761.87
 21
13159.91
 31
61668.81
  0
LINE
  5
282b
  8
0
 10
66761.87
 20
13159.91
 30
61668.81
 11
67653.78
 21
15220.98
 31
61668.81
  0
LINE
  5
282c
  8
0
 10
67653.78
 20
15220.98
 30
61668.81
 11
68673.34
 21
17221.98
 31
61668.81
  0
LINE
  5
282d
  8
0
 10
68673.34
 20
17221.98
 30
61668.81
 11
69816.53
 21
19155.01
 31
61668.81
  0
LINE
  5
282e
  8
0
 10
69816.53
 20
19155.01
 30
61668.81
 11
71078.84
 21
21012.45
 31
61668.81
  0
LINE
  5
282f
  8
0
 10
71078.84
 20
21012.45
 30
61668.81
 11
72455.3
 21
22786.96
 31
61668.81
  0
LINE
  5
2830
  8
0
 10
72455.3
 20
22786.96
 30
61668.81
 11
73940.45
 21
24471.54
 31
61668.81
  0
LINE
  5
2831
  8
0
 10
73940.45
 20
24471.54
 30
61668.81
 11
75528.46
 21
26059.55
 31
61668.81
  0
LINE
  5
2832
  8
0
 10
75528.46
 20
26059.55
 30
61668.81
 11
77213.04
 21
27544.7
 31
61668.81
  0
LINE
  5
2833
  8
0
 10
77213.04
 20
27544.7
 30
61668.81
 11
78987.55
 21
28921.16
 31
61668.81
  0
LINE
  5
2834
  8
0
 10
78987.55
 20
28921.16
 30
61668.81
 11
80844.99
 21
30183.47
 31
61668.81
  0
LINE
  5
2835
  8
0
 10
80844.99
 20
30183.47
 30
61668.81
 11
82778.02
 21
31326.66
 31
61668.81
  0
LINE
  5
2836
  8
0
 10
82778.02
 20
31326.66
 30
61668.81
 11
84779.02
 21
32346.22
 31
61668.81
  0
LINE
  5
2837
  8
0
 10
84779.02
 20
32346.22
 30
61668.81
 11
86840.09
 21
33238.13
 31
61668.81
  0
LINE
  5
2838
  8
0
 10
86840.09
 20
33238.13
 30
61668.81
 11
88953.1
 21
33998.86
 31
61668.81
  0
LINE
  5
2839
  8
0
 10
88953.1
 20
33998.86
 30
61668.81
 11
91109.71
 21
34625.41
 31
61668.81
  0
LINE
  5
283a
  8
0
 10
91109.71
 20
34625.41
 30
61668.81
 11
93301.4
 21
35115.31
 31
61668.81
  0
LINE
  5
283b
  8
0
 10
93301.4
 20
35115.31
 30
61668.81
 11
95519.52
 21
35466.63
 31
61668.81
  0
LINE
  5
283c
  8
0
 10
95519.52
 20
35466.63
 30
61668.81
 11
97755.33
 21
35677.97
 31
61668.81
  0
LINE
  5
283d
  8
0
 10
97755.33
 20
35677.97
 30
61668.81
 11
100000.0
 21
35748.52
 31
61668.81
  0
LINE
  5
283e
  8
0
 10
68148.6
 20
2003.92
 30
62986.79
 11
68337.28
 21
3999.932
 31
62986.79
  0
LINE
  5
283f
  8
0
 10
68337.28
 20
3999.932
 30
62986.79
 11
68650.92
 21
5980.158
 31
62986.79
  0
LINE
  5
2840
  8
0
 10
68650.92
 20
5980.158
 30
62986.79
 11
69088.27
 21
7936.783
 31
62986.79
  0
LINE
  5
2841
  8
0
 10
69088.27
 20
7936.783
 30
62986.79
 11
69647.62
 21
9862.085
 31
62986.79
  0
LINE
  5
2842
  8
0
 10
69647.62
 20
9862.085
 30
62986.79
 11
70326.76
 21
11748.47
 31
62986.79
  0
LINE
  5
2843
  8
0
 10
70326.76
 20
11748.47
 30
62986.79
 11
71123.01
 21
13588.48
 31
62986.79
  0
LINE
  5
2844
  8
0
 10
71123.01
 20
13588.48
 30
62986.79
 11
72033.22
 21
15374.87
 31
62986.79
  0
LINE
  5
2845
  8
0
 10
72033.22
 20
15374.87
 30
62986.79
 11
73053.8
 21
17100.58
 31
62986.79
  0
LINE
  5
2846
  8
0
 10
73053.8
 20
17100.58
 30
62986.79
 11
74180.73
 21
18758.8
 31
62986.79
  0
LINE
  5
2847
  8
0
 10
74180.73
 20
18758.8
 30
62986.79
 11
75409.55
 21
20342.99
 31
62986.79
  0
LINE
  5
2848
  8
0
 10
75409.55
 20
20342.99
 30
62986.79
 11
76735.42
 21
21846.89
 31
62986.79
  0
LINE
  5
2849
  8
0
 10
76735.42
 20
21846.89
 30
62986.79
 11
78153.11
 21
23264.58
 31
62986.79
  0
LINE
  5
284a
  8
0
 10
78153.11
 20
23264.58
 30
62986.79
 11
79657.01
 21
24590.45
 31
62986.79
  0
LINE
  5
284b
  8
0
 10
79657.01
 20
24590.45
 30
62986.79
 11
81241.2
 21
25819.27
 31
62986.79
  0
LINE
  5
284c
  8
0
 10
81241.2
 20
25819.27
 30
62986.79
 11
82899.42
 21
26946.2
 31
62986.79
  0
LINE
  5
284d
  8
0
 10
82899.42
 20
26946.2
 30
62986.79
 11
84625.13
 21
27966.78
 31
62986.79
  0
LINE
  5
284e
  8
0
 10
84625.13
 20
27966.78
 30
62986.79
 11
86411.52
 21
28876.99
 31
62986.79
  0
LINE
  5
284f
  8
0
 10
86411.52
 20
28876.99
 30
62986.79
 11
88251.53
 21
29673.24
 31
62986.79
  0
LINE
  5
2850
  8
0
 10
88251.53
 20
29673.24
 30
62986.79
 11
90137.92
 21
30352.38
 31
62986.79
  0
LINE
  5
2851
  8
0
 10
90137.92
 20
30352.38
 30
62986.79
 11
92063.22
 21
30911.73
 31
62986.79
  0
LINE
  5
2852
  8
0
 10
92063.22
 20
30911.73
 30
62986.79
 11
94019.84
 21
31349.08
 31
62986.79
  0
LINE
  5
2853
  8
0
 10
94019.84
 20
31349.08
 30
62986.79
 11
96000.07
 21
31662.72
 31
62986.79
  0
LINE
  5
2854
  8
0
 10
96000.07
 20
31662.72
 30
62986.79
 11
97996.08
 21
31851.4
 31
62986.79
  0
LINE
  5
2855
  8
0
 10
97996.08
 20
31851.4
 30
62986.79
 11
100000.0
 21
31914.38
 31
62986.79
  0
LINE
  5
2856
  8
0
 10
72023.49
 20
1760.133
 30
64154.47
 11
72189.22
 21
3513.319
 31
64154.47
  0
LINE
  5
2857
  8
0
 10
72189.22
 20
3513.319
 30
64154.47
 11
72464.7
 21
5252.639
 31
64154.47
  0
LINE
  5
2858
  8
0
 10
72464.7
 20
5252.639
 30
64154.47
 11
72848.85
 21
6971.23
 31
64154.47
  0
LINE
  5
2859
  8
0
 10
72848.85
 20
6971.23
 30
64154.47
 11
73340.16
 21
8662.309
 31
64154.47
  0
LINE
  5
285a
  8
0
 10
73340.16
 20
8662.309
 30
64154.47
 11
73936.67
 21
10319.2
 31
64154.47
  0
LINE
  5
285b
  8
0
 10
73936.67
 20
10319.2
 30
64154.47
 11
74636.05
 21
11935.37
 31
64154.47
  0
LINE
  5
285c
  8
0
 10
74636.05
 20
11935.37
 30
64154.47
 11
75435.53
 21
13504.43
 31
64154.47
  0
LINE
  5
285d
  8
0
 10
75435.53
 20
13504.43
 30
64154.47
 11
76331.95
 21
15020.2
 31
64154.47
  0
LINE
  5
285e
  8
0
 10
76331.95
 20
15020.2
 30
64154.47
 11
77321.78
 21
16476.69
 31
64154.47
  0
LINE
  5
285f
  8
0
 10
77321.78
 20
16476.69
 30
64154.47
 11
78401.11
 21
17868.15
 31
64154.47
  0
LINE
  5
2860
  8
0
 10
78401.11
 20
17868.15
 30
64154.47
 11
79565.68
 21
19189.1
 31
64154.47
  0
LINE
  5
2861
  8
0
 10
79565.68
 20
19189.1
 30
64154.47
 11
80810.9
 21
20434.32
 31
64154.47
  0
LINE
  5
2862
  8
0
 10
80810.9
 20
20434.32
 30
64154.47
 11
82131.85
 21
21598.89
 31
64154.47
  0
LINE
  5
2863
  8
0
 10
82131.85
 20
21598.89
 30
64154.47
 11
83523.31
 21
22678.22
 31
64154.47
  0
LINE
  5
2864
  8
0
 10
83523.31
 20
22678.22
 30
64154.47
 11
84979.8
 21
23668.05
 31
64154.47
  0
LINE
  5
2865
  8
0
 10
84979.8
 20
23668.05
 30
64154.47
 11
86495.57
 21
24564.47
 31
64154.47
  0
LINE
  5
2866
  8
0
 10
86495.57
 20
24564.47
 30
64154.47
 11
88064.63
 21
25363.95
 31
64154.47
  0
LINE
  5
2867
  8
0
 10
88064.63
 20
25363.95
 30
64154.47
 11
89680.8
 21
26063.33
 31
64154.47
  0
LINE
  5
2868
  8
0
 10
89680.8
 20
26063.33
 30
64154.47
 11
91337.69
 21
26659.84
 31
64154.47
  0
LINE
  5
2869
  8
0
 10
91337.69
 20
26659.84
 30
64154.47
 11
93028.77
 21
27151.15
 31
64154.47
  0
LINE
  5
286a
  8
0
 10
93028.77
 20
27151.15
 30
64154.47
 11
94747.36
 21
27535.3
 31
64154.47
  0
LINE
  5
286b
  8
0
 10
94747.36
 20
27535.3
 30
64154.47
 11
96486.68
 21
27810.78
 31
64154.47
  0
LINE
  5
286c
  8
0
 10
96486.68
 20
27810.78
 30
64154.47
 11
98239.87
 21
27976.51
 31
64154.47
  0
LINE
  5
286d
  8
0
 10
98239.87
 20
27976.51
 30
64154.47
 11
100000.0
 21
28031.82
 31
64154.47
  0
LINE
  5
286e
  8
0
 10
75940.83
 20
1513.674
 30
65170.06
 11
76083.35
 21
3021.375
 31
65170.06
  0
LINE
  5
286f
  8
0
 10
76083.35
 20
3021.375
 30
65170.06
 11
76320.26
 21
4517.152
 31
65170.06
  0
LINE
  5
2870
  8
0
 10
76320.26
 20
4517.152
 30
65170.06
 11
76650.62
 21
5995.101
 31
65170.06
  0
LINE
  5
2871
  8
0
 10
76650.62
 20
5995.101
 30
65170.06
 11
77073.13
 21
7449.391
 31
65170.06
  0
LINE
  5
2872
  8
0
 10
77073.13
 20
7449.391
 30
65170.06
 11
77586.12
 21
8874.281
 31
65170.06
  0
LINE
  5
2873
  8
0
 10
77586.12
 20
8874.281
 30
65170.06
 11
78187.57
 21
10264.15
 31
65170.06
  0
LINE
  5
2874
  8
0
 10
78187.57
 20
10264.15
 30
65170.06
 11
78875.11
 21
11613.51
 31
65170.06
  0
LINE
  5
2875
  8
0
 10
78875.11
 20
11613.51
 30
65170.06
 11
79646.01
 21
12917.03
 31
65170.06
  0
LINE
  5
2876
  8
0
 10
79646.01
 20
12917.03
 30
65170.06
 11
80497.24
 21
14169.58
 31
65170.06
  0
LINE
  5
2877
  8
0
 10
80497.24
 20
14169.58
 30
65170.06
 11
81425.44
 21
15366.21
 31
65170.06
  0
LINE
  5
2878
  8
0
 10
81425.44
 20
15366.21
 30
65170.06
 11
82426.95
 21
16502.2
 31
65170.06
  0
LINE
  5
2879
  8
0
 10
82426.95
 20
16502.2
 30
65170.06
 11
83497.8
 21
17573.05
 31
65170.06
  0
LINE
  5
287a
  8
0
 10
83497.8
 20
17573.05
 30
65170.06
 11
84633.79
 21
18574.56
 31
65170.06
  0
LINE
  5
287b
  8
0
 10
84633.79
 20
18574.56
 30
65170.06
 11
85830.42
 21
19502.76
 31
65170.06
  0
LINE
  5
287c
  8
0
 10
85830.42
 20
19502.76
 30
65170.06
 11
87082.97
 21
20353.99
 31
65170.06
  0
LINE
  5
287d
  8
0
 10
87082.97
 20
20353.99
 30
65170.06
 11
88386.49
 21
21124.89
 31
65170.06
  0
LINE
  5
287e
  8
0
 10
88386.49
 20
21124.89
 30
65170.06
 11
89735.85
 21
21812.43
 31
65170.06
  0
LINE
  5
287f
  8
0
 10
89735.85
 20
21812.43
 30
65170.06
 11
91125.72
 21
22413.88
 31
65170.06
  0
LINE
  5
2880
  8
0
 10
91125.72
 20
22413.88
 30
65170.06
 11
92550.61
 21
22926.87
 31
65170.06
  0
LINE
  5
2881
  8
0
 10
92550.61
 20
22926.87
 30
65170.06
 11
94004.9
 21
23349.38
 31
65170.06
  0
LINE
  5
2882
  8
0
 10
94004.9
 20
23349.38
 30
65170.06
 11
95482.85
 21
23679.74
 31
65170.06
  0
LINE
  5
2883
  8
0
 10
95482.85
 20
23679.74
 30
65170.06
 11
96978.62
 21
23916.65
 31
65170.06
  0
LINE
  5
2884
  8
0
 10
96978.62
 20
23916.65
 30
65170.06
 11
98486.33
 21
24059.17
 31
65170.06
  0
LINE
  5
2885
  8
0
 10
98486.33
 20
24059.17
 30
65170.06
 11
100000.0
 21
24106.74
 31
65170.06
  0
LINE
  5
2886
  8
0
 10
79894.67
 20
1264.92
 30
66032.02
 11
80013.77
 21
2524.848
 31
66032.02
  0
LINE
  5
2887
  8
0
 10
80013.77
 20
2524.848
 30
66032.02
 11
80211.75
 21
3774.811
 31
66032.02
  0
LINE
  5
2888
  8
0
 10
80211.75
 20
3774.811
 30
66032.02
 11
80487.82
 21
5009.878
 31
66032.02
  0
LINE
  5
2889
  8
0
 10
80487.82
 20
5009.878
 30
66032.02
 11
80840.89
 21
6225.172
 31
66032.02
  0
LINE
  5
288a
  8
0
 10
80840.89
 20
6225.172
 30
66032.02
 11
81269.58
 21
7415.898
 31
66032.02
  0
LINE
  5
288b
  8
0
 10
81269.58
 20
7415.898
 30
66032.02
 11
81772.19
 21
8577.358
 31
66032.02
  0
LINE
  5
288c
  8
0
 10
81772.19
 20
8577.358
 30
66032.02
 11
82346.73
 21
9704.966
 31
66032.02
  0
LINE
  5
288d
  8
0
 10
82346.73
 20
9704.966
 30
66032.02
 11
82990.95
 21
10794.27
 31
66032.02
  0
LINE
  5
288e
  8
0
 10
82990.95
 20
10794.27
 30
66032.02
 11
83702.29
 21
11840.98
 31
66032.02
  0
LINE
  5
288f
  8
0
 10
83702.29
 20
11840.98
 30
66032.02
 11
84477.95
 21
12840.96
 31
66032.02
  0
LINE
  5
2890
  8
0
 10
84477.95
 20
12840.96
 30
66032.02
 11
85314.87
 21
13790.26
 31
66032.02
  0
LINE
  5
2891
  8
0
 10
85314.87
 20
13790.26
 30
66032.02
 11
86209.74
 21
14685.13
 31
66032.02
  0
LINE
  5
2892
  8
0
 10
86209.74
 20
14685.13
 30
66032.02
 11
87159.04
 21
15522.05
 31
66032.02
  0
LINE
  5
2893
  8
0
 10
87159.04
 20
15522.05
 30
66032.02
 11
88159.02
 21
16297.71
 31
66032.02
  0
LINE
  5
2894
  8
0
 10
88159.02
 20
16297.71
 30
66032.02
 11
89205.73
 21
17009.05
 31
66032.02
  0
LINE
  5
2895
  8
0
 10
89205.73
 20
17009.05
 30
66032.02
 11
90295.03
 21
17653.27
 31
66032.02
  0
LINE
  5
2896
  8
0
 10
90295.03
 20
17653.27
 30
66032.02
 11
91422.64
 21
18227.81
 31
66032.02
  0
LINE
  5
2897
  8
0
 10
91422.64
 20
18227.81
 30
66032.02
 11
92584.1
 21
18730.42
 31
66032.02
  0
LINE
  5
2898
  8
0
 10
92584.1
 20
18730.42
 30
66032.02
 11
93774.83
 21
19159.11
 31
66032.02
  0
LINE
  5
2899
  8
0
 10
93774.83
 20
19159.11
 30
66032.02
 11
94990.12
 21
19512.18
 31
66032.02
  0
LINE
  5
289a
  8
0
 10
94990.12
 20
19512.18
 30
66032.02
 11
96225.19
 21
19788.25
 31
66032.02
  0
LINE
  5
289b
  8
0
 10
96225.19
 20
19788.25
 30
66032.02
 11
97475.15
 21
19986.23
 31
66032.02
  0
LINE
  5
289c
  8
0
 10
97475.15
 20
19986.23
 30
66032.02
 11
98735.08
 21
20105.33
 31
66032.02
  0
LINE
  5
289d
  8
0
 10
98735.08
 20
20105.33
 30
66032.02
 11
100000.0
 21
20145.08
 31
66032.02
  0
LINE
  5
289e
  8
0
 10
83879.01
 20
1014.247
 30
66739.06
 11
83974.51
 21
2024.49
 31
66739.06
  0
LINE
  5
289f
  8
0
 10
83974.51
 20
2024.49
 30
66739.06
 11
84133.25
 21
3026.744
 31
66739.06
  0
LINE
  5
28a0
  8
0
 10
84133.25
 20
3026.744
 30
66739.06
 11
84354.61
 21
4017.053
 31
66739.06
  0
LINE
  5
28a1
  8
0
 10
84354.61
 20
4017.053
 30
66739.06
 11
84637.72
 21
4991.509
 31
66739.06
  0
LINE
  5
28a2
  8
0
 10
84637.72
 20
4991.509
 30
66739.06
 11
84981.45
 21
5946.265
 31
66739.06
  0
LINE
  5
28a3
  8
0
 10
84981.45
 20
5946.265
 30
66739.06
 11
85384.45
 21
6877.554
 31
66739.06
  0
LINE
  5
28a4
  8
0
 10
85384.45
 20
6877.554
 30
66739.06
 11
85845.14
 21
7781.7
 31
66739.06
  0
LINE
  5
28a5
  8
0
 10
85845.14
 20
7781.7
 30
66739.06
 11
86361.69
 21
8655.136
 31
66739.06
  0
LINE
  5
28a6
  8
0
 10
86361.69
 20
8655.136
 30
66739.06
 11
86932.06
 21
9494.413
 31
66739.06
  0
LINE
  5
28a7
  8
0
 10
86932.06
 20
9494.413
 30
66739.06
 11
87554.01
 21
10296.22
 31
66739.06
  0
LINE
  5
28a8
  8
0
 10
87554.01
 20
10296.22
 30
66739.06
 11
88225.07
 21
11057.39
 31
66739.06
  0
LINE
  5
28a9
  8
0
 10
88225.07
 20
11057.39
 30
66739.06
 11
88942.61
 21
11774.93
 31
66739.06
  0
LINE
  5
28aa
  8
0
 10
88942.61
 20
11774.93
 30
66739.06
 11
89703.78
 21
12445.99
 31
66739.06
  0
LINE
  5
28ab
  8
0
 10
89703.78
 20
12445.99
 30
66739.06
 11
90505.59
 21
13067.94
 31
66739.06
  0
LINE
  5
28ac
  8
0
 10
90505.59
 20
13067.94
 30
66739.06
 11
91344.86
 21
13638.31
 31
66739.06
  0
LINE
  5
28ad
  8
0
 10
91344.86
 20
13638.31
 30
66739.06
 11
92218.3
 21
14154.86
 31
66739.06
  0
LINE
  5
28ae
  8
0
 10
92218.3
 20
14154.86
 30
66739.06
 11
93122.45
 21
14615.55
 31
66739.06
  0
LINE
  5
28af
  8
0
 10
93122.45
 20
14615.55
 30
66739.06
 11
94053.74
 21
15018.55
 31
66739.06
  0
LINE
  5
28b0
  8
0
 10
94053.74
 20
15018.55
 30
66739.06
 11
95008.49
 21
15362.28
 31
66739.06
  0
LINE
  5
28b1
  8
0
 10
95008.49
 20
15362.28
 30
66739.06
 11
95982.95
 21
15645.39
 31
66739.06
  0
LINE
  5
28b2
  8
0
 10
95982.95
 20
15645.39
 30
66739.06
 11
96973.26
 21
15866.75
 31
66739.06
  0
LINE
  5
28b3
  8
0
 10
96973.26
 20
15866.75
 30
66739.06
 11
97975.51
 21
16025.49
 31
66739.06
  0
LINE
  5
28b4
  8
0
 10
97975.51
 20
16025.49
 30
66739.06
 11
98985.75
 21
16120.99
 31
66739.06
  0
LINE
  5
28b5
  8
0
 10
98985.75
 20
16120.99
 30
66739.06
 11
100000.0
 21
16152.86
 31
66739.06
  0
LINE
  5
28b6
  8
0
 10
87887.81
 20
762.0343
 30
67290.09
 11
87959.56
 21
1521.061
 31
67290.09
  0
LINE
  5
28b7
  8
0
 10
87959.56
 20
1521.061
 30
67290.09
 11
88078.83
 21
2274.085
 31
67290.09
  0
LINE
  5
28b8
  8
0
 10
88078.83
 20
2274.085
 30
67290.09
 11
88245.14
 21
3018.135
 31
67290.09
  0
LINE
  5
28b9
  8
0
 10
88245.14
 20
3018.135
 30
67290.09
 11
88457.85
 21
3750.273
 31
67290.09
  0
LINE
  5
28ba
  8
0
 10
88457.85
 20
3750.273
 30
67290.09
 11
88716.11
 21
4467.61
 31
67290.09
  0
LINE
  5
28bb
  8
0
 10
88716.11
 20
4467.61
 30
67290.09
 11
89018.89
 21
5167.316
 31
67290.09
  0
LINE
  5
28bc
  8
0
 10
89018.89
 20
5167.316
 30
67290.09
 11
89365.02
 21
5846.629
 31
67290.09
  0
LINE
  5
28bd
  8
0
 10
89365.02
 20
5846.629
 30
67290.09
 11
89753.12
 21
6502.867
 31
67290.09
  0
LINE
  5
28be
  8
0
 10
89753.12
 20
6502.867
 30
67290.09
 11
90181.66
 21
7133.442
 31
67290.09
  0
LINE
  5
28bf
  8
0
 10
90181.66
 20
7133.442
 30
67290.09
 11
90648.95
 21
7735.865
 31
67290.09
  0
LINE
  5
28c0
  8
0
 10
90648.95
 20
7735.865
 30
67290.09
 11
91153.14
 21
8307.757
 31
67290.09
  0
LINE
  5
28c1
  8
0
 10
91153.14
 20
8307.757
 30
67290.09
 11
91692.24
 21
8846.863
 31
67290.09
  0
LINE
  5
28c2
  8
0
 10
91692.24
 20
8846.863
 30
67290.09
 11
92264.14
 21
9351.054
 31
67290.09
  0
LINE
  5
28c3
  8
0
 10
92264.14
 20
9351.054
 30
67290.09
 11
92866.56
 21
9818.341
 31
67290.09
  0
LINE
  5
28c4
  8
0
 10
92866.56
 20
9818.341
 30
67290.09
 11
93497.13
 21
10246.88
 31
67290.09
  0
LINE
  5
28c5
  8
0
 10
93497.13
 20
10246.88
 30
67290.09
 11
94153.37
 21
10634.98
 31
67290.09
  0
LINE
  5
28c6
  8
0
 10
94153.37
 20
10634.98
 30
67290.09
 11
94832.68
 21
10981.11
 31
67290.09
  0
LINE
  5
28c7
  8
0
 10
94832.68
 20
10981.11
 30
67290.09
 11
95532.39
 21
11283.89
 31
67290.09
  0
LINE
  5
28c8
  8
0
 10
95532.39
 20
11283.89
 30
67290.09
 11
96249.73
 21
11542.15
 31
67290.09
  0
LINE
  5
28c9
  8
0
 10
96249.73
 20
11542.15
 30
67290.09
 11
96981.87
 21
11754.86
 31
67290.09
  0
LINE
  5
28ca
  8
0
 10
96981.87
 20
11754.86
 30
67290.09
 11
97725.91
 21
11921.17
 31
67290.09
  0
LINE
  5
28cb
  8
0
 10
97725.91
 20
11921.17
 30
67290.09
 11
98478.94
 21
12040.44
 31
67290.09
  0
LINE
  5
28cc
  8
0
 10
98478.94
 20
12040.44
 30
67290.09
 11
99237.97
 21
12112.19
 31
67290.09
  0
LINE
  5
28cd
  8
0
 10
99237.97
 20
12112.19
 30
67290.09
 11
100000.0
 21
12136.14
 31
67290.09
  0
LINE
  5
28ce
  8
0
 10
91914.98
 20
508.6661
 30
67684.29
 11
91962.88
 21
1015.325
 31
67684.29
  0
LINE
  5
28cf
  8
0
 10
91962.88
 20
1015.325
 30
67684.29
 11
92042.49
 21
1517.976
 31
67684.29
  0
LINE
  5
28d0
  8
0
 10
92042.49
 20
1517.976
 30
67684.29
 11
92153.51
 21
2014.637
 31
67684.29
  0
LINE
  5
28d1
  8
0
 10
92153.51
 20
2014.637
 30
67684.29
 11
92295.49
 21
2503.347
 31
67684.29
  0
LINE
  5
28d2
  8
0
 10
92295.49
 20
2503.347
 30
67684.29
 11
92467.88
 21
2982.177
 31
67684.29
  0
LINE
  5
28d3
  8
0
 10
92467.88
 20
2982.177
 30
67684.29
 11
92669.99
 21
3449.239
 31
67684.29
  0
LINE
  5
28d4
  8
0
 10
92669.99
 20
3449.239
 30
67684.29
 11
92901.04
 21
3902.687
 31
67684.29
  0
LINE
  5
28d5
  8
0
 10
92901.04
 20
3902.687
 30
67684.29
 11
93160.1
 21
4340.734
 31
67684.29
  0
LINE
  5
28d6
  8
0
 10
93160.1
 20
4340.734
 30
67684.29
 11
93446.15
 21
4761.649
 31
67684.29
  0
LINE
  5
28d7
  8
0
 10
93446.15
 20
4761.649
 30
67684.29
 11
93758.07
 21
5163.773
 31
67684.29
  0
LINE
  5
28d8
  8
0
 10
93758.07
 20
5163.773
 30
67684.29
 11
94094.62
 21
5545.517
 31
67684.29
  0
LINE
  5
28d9
  8
0
 10
94094.62
 20
5545.517
 30
67684.29
 11
94454.48
 21
5905.376
 31
67684.29
  0
LINE
  5
28da
  8
0
 10
94454.48
 20
5905.376
 30
67684.29
 11
94836.23
 21
6241.929
 31
67684.29
  0
LINE
  5
28db
  8
0
 10
94836.23
 20
6241.929
 30
67684.29
 11
95238.35
 21
6553.848
 31
67684.29
  0
LINE
  5
28dc
  8
0
 10
95238.35
 20
6553.848
 30
67684.29
 11
95659.27
 21
6839.902
 31
67684.29
  0
LINE
  5
28dd
  8
0
 10
95659.27
 20
6839.902
 30
67684.29
 11
96097.31
 21
7098.961
 31
67684.29
  0
LINE
  5
28de
  8
0
 10
96097.31
 20
7098.961
 30
67684.29
 11
96550.76
 21
7330.005
 31
67684.29
  0
LINE
  5
28df
  8
0
 10
96550.76
 20
7330.005
 30
67684.29
 11
97017.82
 21
7532.12
 31
67684.29
  0
LINE
  5
28e0
  8
0
 10
97017.82
 20
7532.12
 30
67684.29
 11
97496.65
 21
7704.51
 31
67684.29
  0
LINE
  5
28e1
  8
0
 10
97496.65
 20
7704.51
 30
67684.29
 11
97985.36
 21
7846.493
 31
67684.29
  0
LINE
  5
28e2
  8
0
 10
97985.36
 20
7846.493
 30
67684.29
 11
98482.02
 21
7957.51
 31
67684.29
  0
LINE
  5
28e3
  8
0
 10
98482.02
 20
7957.51
 30
67684.29
 11
98984.68
 21
8037.122
 31
67684.29
  0
LINE
  5
28e4
  8
0
 10
98984.68
 20
8037.122
 30
67684.29
 11
99491.33
 21
8085.016
 31
67684.29
  0
LINE
  5
28e5
  8
0
 10
99491.33
 20
8085.016
 30
67684.29
 11
100000.0
 21
8101.001
 31
67684.29
  0
LINE
  5
28e6
  8
0
 10
95954.42
 20
254.5261
 30
67921.04
 11
95978.39
 21
508.0477
 31
67921.04
  0
LINE
  5
28e7
  8
0
 10
95978.39
 20
508.0477
 30
67921.04
 11
96018.22
 21
759.5643
 31
67921.04
  0
LINE
  5
28e8
  8
0
 10
96018.22
 20
759.5643
 30
67921.04
 11
96073.78
 21
1008.083
 31
67921.04
  0
LINE
  5
28e9
  8
0
 10
96073.78
 20
1008.083
 30
67921.04
 11
96144.82
 21
1252.624
 31
67921.04
  0
LINE
  5
28ea
  8
0
 10
96144.82
 20
1252.624
 30
67921.04
 11
96231.08
 21
1492.221
 31
67921.04
  0
LINE
  5
28eb
  8
0
 10
96231.08
 20
1492.221
 30
67921.04
 11
96332.22
 21
1725.928
 31
67921.04
  0
LINE
  5
28ec
  8
0
 10
96332.22
 20
1725.928
 30
67921.04
 11
96447.82
 21
1952.825
 31
67921.04
  0
LINE
  5
28ed
  8
0
 10
96447.82
 20
1952.825
 30
67921.04
 11
96577.45
 21
2172.014
 31
67921.04
  0
LINE
  5
28ee
  8
0
 10
96577.45
 20
2172.014
 30
67921.04
 11
96720.59
 21
2382.632
 31
67921.04
  0
LINE
  5
28ef
  8
0
 10
96720.59
 20
2382.632
 30
67921.04
 11
96876.67
 21
2583.846
 31
67921.04
  0
LINE
  5
28f0
  8
0
 10
96876.67
 20
2583.846
 30
67921.04
 11
97045.07
 21
2774.863
 31
67921.04
  0
LINE
  5
28f1
  8
0
 10
97045.07
 20
2774.863
 30
67921.04
 11
97225.14
 21
2954.929
 31
67921.04
  0
LINE
  5
28f2
  8
0
 10
97225.14
 20
2954.929
 30
67921.04
 11
97416.15
 21
3123.334
 31
67921.04
  0
LINE
  5
28f3
  8
0
 10
97416.15
 20
3123.334
 30
67921.04
 11
97617.37
 21
3279.411
 31
67921.04
  0
LINE
  5
28f4
  8
0
 10
97617.37
 20
3279.411
 30
67921.04
 11
97827.99
 21
3422.547
 31
67921.04
  0
LINE
  5
28f5
  8
0
 10
97827.99
 20
3422.547
 30
67921.04
 11
98047.18
 21
3552.175
 31
67921.04
  0
LINE
  5
28f6
  8
0
 10
98047.18
 20
3552.175
 30
67921.04
 11
98274.07
 21
3667.785
 31
67921.04
  0
LINE
  5
28f7
  8
0
 10
98274.07
 20
3667.785
 30
67921.04
 11
98507.78
 21
3768.919
 31
67921.04
  0
LINE
  5
28f8
  8
0
 10
98507.78
 20
3768.919
 30
67921.04
 11
98747.38
 21
3855.179
 31
67921.04
  0
LINE
  5
28f9
  8
0
 10
98747.38
 20
3855.179
 30
67921.04
 11
98991.92
 21
3926.225
 31
67921.04
  0
LINE
  5
28fa
  8
0
 10
98991.92
 20
3926.225
 30
67921.04
 11
99240.44
 21
3981.775
 31
67921.04
  0
LINE
  5
28fb
  8
0
 10
99240.44
 20
3981.775
 30
67921.04
 11
99491.95
 21
4021.612
 31
67921.04
  0
LINE
  5
28fc
  8
0
 10
99491.95
 20
4021.612
 30
67921.04
 11
99745.47
 21
4045.577
 31
67921.04
  0
LINE
  5
28fd
  8
0
 10
99745.47
 20
4045.577
 30
67921.04
 11
100000.0
 21
4053.575
 31
67921.04
  0
ENDSEC
  0
EOF